<?xml version="1.0" encoding="UTF-8" standalone="no"?>
<!DOCTYPE svg PUBLIC "-//W3C//DTD SVG 1.1//EN" "http://www.w3.org/Graphics/SVG/1.1/DTD/svg11.dtd">
<svg width="100%" height="100%" viewBox="0 0 512 512" version="1.1" xmlns="http://www.w3.org/2000/svg" xmlns:xlink="http://www.w3.org/1999/xlink" xml:space="preserve" xmlns:serif="http://www.serif.com/" style="fill-rule:evenodd;clip-rule:evenodd;stroke-linejoin:round;stroke-miterlimit:2;">
    <g transform="matrix(1.18289,0,0,1,164.875,0.162424)">
        <path d="M139.527,150.113C139.527,129.041 125.065,111.934 107.251,111.934L42.698,111.934C24.884,111.934 10.422,129.041 10.422,150.113L10.422,274.138C10.422,295.21 24.884,312.317 42.698,312.317L107.251,312.317C125.065,312.317 139.527,295.21 139.527,274.138L139.527,150.113Z" style="fill:white;"/>
    </g>
    <g transform="matrix(0.484697,0,0,1,219.66,89.2121)">
        <path d="M139.527,127.578C139.527,118.944 125.065,111.934 107.251,111.934L42.698,111.934C24.884,111.934 10.422,118.944 10.422,127.578L10.422,296.673C10.422,305.307 24.884,312.317 42.698,312.317L107.251,312.317C125.065,312.317 139.527,305.307 139.527,296.673L139.527,127.578Z" style="fill:white;"/>
    </g>
    <g transform="matrix(0.9269,0,0,0.068199,184.067,147.821)">
        <path d="M139.527,162.03C139.527,134.381 137.876,111.934 135.841,111.934L14.108,111.934C12.073,111.934 10.422,134.381 10.422,162.03L10.422,262.221C10.422,289.87 12.073,312.317 14.108,312.317L135.841,312.317C137.876,312.317 139.527,289.87 139.527,262.221L139.527,162.03Z" style="fill-opacity:0.5;"/>
    </g>
    <g transform="matrix(0.9269,0,0,0.068199,184.067,167.821)">
        <path d="M139.527,162.03C139.527,134.381 137.876,111.934 135.841,111.934L14.108,111.934C12.073,111.934 10.422,134.381 10.422,162.03L10.422,262.221C10.422,289.87 12.073,312.317 14.108,312.317L135.841,312.317C137.876,312.317 139.527,289.87 139.527,262.221L139.527,162.03Z" style="fill-opacity:0.5;"/>
    </g>
    <g transform="matrix(0.9269,0,0,0.068199,184.067,187.821)">
        <path d="M139.527,162.03C139.527,134.381 137.876,111.934 135.841,111.934L14.108,111.934C12.073,111.934 10.422,134.381 10.422,162.03L10.422,262.221C10.422,289.87 12.073,312.317 14.108,312.317L135.841,312.317C137.876,312.317 139.527,289.87 139.527,262.221L139.527,162.03Z" style="fill-opacity:0.5;"/>
    </g>
    <g transform="matrix(0.9269,0,0,0.068199,184.067,207.821)">
        <path d="M139.527,162.03C139.527,134.381 137.876,111.934 135.841,111.934L14.108,111.934C12.073,111.934 10.422,134.381 10.422,162.03L10.422,262.221C10.422,289.87 12.073,312.317 14.108,312.317L135.841,312.317C137.876,312.317 139.527,289.87 139.527,262.221L139.527,162.03Z" style="fill-opacity:0.5;"/>
    </g>
    <g transform="matrix(0.9269,0,0,0.068199,184.067,227.821)">
        <path d="M139.527,162.03C139.527,134.381 137.876,111.934 135.841,111.934L14.108,111.934C12.073,111.934 10.422,134.381 10.422,162.03L10.422,262.221C10.422,289.87 12.073,312.317 14.108,312.317L135.841,312.317C137.876,312.317 139.527,289.87 139.527,262.221L139.527,162.03Z" style="fill-opacity:0.5;"/>
    </g>
    <g transform="matrix(0.9269,0,0,0.068199,184.067,247.821)">
        <path d="M139.527,162.03C139.527,134.381 137.876,111.934 135.841,111.934L14.108,111.934C12.073,111.934 10.422,134.381 10.422,162.03L10.422,262.221C10.422,289.87 12.073,312.317 14.108,312.317L135.841,312.317C137.876,312.317 139.527,289.87 139.527,262.221L139.527,162.03Z" style="fill-opacity:0.5;"/>
    </g>
    <g transform="matrix(1.49848,0,0,0.170064,141.213,353.132)">
        <path d="M139.527,162.03C139.527,134.381 136.98,111.934 133.842,111.934L16.107,111.934C12.969,111.934 10.422,134.381 10.422,162.03L10.422,262.221C10.422,289.87 12.969,312.317 16.107,312.317L133.842,312.317C136.98,312.317 139.527,289.87 139.527,262.221L139.527,162.03Z" style="fill:white;"/>
    </g>
</svg>
