<?xml version="1.0" encoding="UTF-8" standalone="no"?>
<!DOCTYPE svg PUBLIC "-//W3C//DTD SVG 1.1//EN" "http://www.w3.org/Graphics/SVG/1.1/DTD/svg11.dtd">
<svg width="100%" height="100%" viewBox="0 0 287 288" version="1.1" xmlns="http://www.w3.org/2000/svg" xmlns:xlink="http://www.w3.org/1999/xlink" xml:space="preserve" xmlns:serif="http://www.serif.com/" style="fill-rule:evenodd;clip-rule:evenodd;stroke-linejoin:round;stroke-miterlimit:2;">
    <g transform="matrix(1,0,0,1,-340.963,-161.976)">
        <g transform="matrix(288,0,0,288,895.302,565.388)">
            <g transform="matrix(0.00347222,0,0,0.00347222,-3.10869,-1.96315)">
                <rect x="429.583" y="226.845" width="104.774" height="156.73" style="fill:white;"/>
            </g>
        </g>
        <g transform="matrix(288,0,0,288,895.302,565.388)">
            <g transform="matrix(1,0,0,1,-2.01179,-0.549736)">
                <path d="M0.585,0.146C0.653,0.146 0.718,0.132 0.778,0.106C0.838,0.08 0.891,0.044 0.937,-0.001C0.982,-0.047 1.018,-0.1 1.044,-0.16C1.07,-0.22 1.083,-0.285 1.083,-0.353C1.083,-0.421 1.07,-0.485 1.044,-0.545C1.018,-0.605 0.982,-0.658 0.937,-0.704C0.891,-0.75 0.838,-0.785 0.777,-0.812C0.717,-0.838 0.653,-0.851 0.585,-0.851C0.517,-0.851 0.453,-0.838 0.393,-0.812C0.333,-0.785 0.28,-0.75 0.234,-0.704C0.188,-0.658 0.153,-0.605 0.126,-0.545C0.1,-0.485 0.087,-0.421 0.087,-0.353C0.087,-0.285 0.1,-0.22 0.126,-0.16C0.153,-0.1 0.188,-0.047 0.234,-0.001C0.28,0.044 0.333,0.08 0.393,0.106C0.453,0.132 0.517,0.146 0.585,0.146ZM0.611,-0.124C0.598,-0.124 0.589,-0.128 0.582,-0.135C0.575,-0.143 0.571,-0.155 0.571,-0.169L0.571,-0.494L0.568,-0.494L0.502,-0.452C0.497,-0.447 0.492,-0.445 0.489,-0.444C0.486,-0.443 0.482,-0.442 0.478,-0.442C0.47,-0.442 0.463,-0.445 0.458,-0.452C0.452,-0.458 0.449,-0.465 0.449,-0.473C0.449,-0.479 0.45,-0.484 0.453,-0.489C0.455,-0.493 0.459,-0.497 0.465,-0.501L0.556,-0.563C0.566,-0.57 0.575,-0.575 0.583,-0.578C0.591,-0.581 0.599,-0.582 0.609,-0.582C0.623,-0.582 0.633,-0.578 0.641,-0.57C0.648,-0.563 0.652,-0.551 0.652,-0.537L0.652,-0.169C0.652,-0.155 0.648,-0.143 0.641,-0.135C0.634,-0.128 0.624,-0.124 0.611,-0.124Z" style="fill:rgb(255,0,0);fill-rule:nonzero;"/>
            </g>
        </g>
    </g>
</svg>
