<?xml version="1.0" encoding="UTF-8" standalone="no"?>
<!DOCTYPE svg PUBLIC "-//W3C//DTD SVG 1.1//EN" "http://www.w3.org/Graphics/SVG/1.1/DTD/svg11.dtd">
<svg width="100%" height="100%" viewBox="0 0 512 512" version="1.1" xmlns="http://www.w3.org/2000/svg" xmlns:xlink="http://www.w3.org/1999/xlink" xml:space="preserve" xmlns:serif="http://www.serif.com/" style="fill-rule:evenodd;clip-rule:evenodd;stroke-linejoin:round;stroke-miterlimit:2;">
    <g transform="matrix(1,0,0,1,17.1121,2.80171)">
        <rect x="132.099" y="109.132" width="213.577" height="293.736" style="fill:white;"/>
    </g>
    <g>
        <g transform="matrix(0.538414,0,0,1,72.2766,-24.9552)">
            <rect x="166.788" y="191.567" width="184.97" height="11.411" style="fill-opacity:0.5;"/>
        </g>
        <g transform="matrix(1,0,0,1,-4.7103,-4.95515)">
            <rect x="166.788" y="191.567" width="184.97" height="11.411" style="fill-opacity:0.5;"/>
        </g>
        <g transform="matrix(0.187038,0,0,4.50542,130.882,-656.478)">
            <rect x="166.788" y="191.567" width="184.97" height="11.411" style="fill-opacity:0.5;"/>
        </g>
        <g transform="matrix(0.77692,0,0,1,73.7598,15.0448)">
            <rect x="166.788" y="191.567" width="184.97" height="11.411" style="fill-opacity:0.5;"/>
        </g>
        <g transform="matrix(0.77692,0,0,1,73.7598,35.0448)">
            <rect x="166.788" y="191.567" width="184.97" height="11.411" style="fill-opacity:0.5;"/>
        </g>
        <g transform="matrix(0.77692,0,0,1,73.7598,55.0448)">
            <rect x="166.788" y="191.567" width="184.97" height="11.411" style="fill-opacity:0.5;"/>
        </g>
        <g transform="matrix(1,0,0,1,-4.7103,75.0448)">
            <rect x="166.788" y="191.567" width="184.97" height="11.411" style="fill-opacity:0.5;"/>
        </g>
        <g transform="matrix(1,0,0,1,-4.7103,95.0448)">
            <rect x="166.788" y="191.567" width="184.97" height="11.411" style="fill-opacity:0.5;"/>
        </g>
        <g transform="matrix(0.381992,0,0,1,212.679,115.045)">
            <rect x="166.788" y="191.567" width="184.97" height="11.411" style="fill-opacity:0.5;"/>
        </g>
        <g transform="matrix(0.618008,0,0,1,59.0014,115.045)">
            <rect x="166.788" y="191.567" width="184.97" height="11.411" style="fill-opacity:0.5;"/>
        </g>
        <g transform="matrix(0.618008,0,0,1,59.0014,135.045)">
            <rect x="166.788" y="191.567" width="184.97" height="11.411" style="fill-opacity:0.5;"/>
        </g>
        <g transform="matrix(0.618008,0,0,1,59.0014,155.045)">
            <rect x="166.788" y="191.567" width="184.97" height="11.411" style="fill-opacity:0.5;"/>
        </g>
        <g transform="matrix(0.341625,0,0,2.77799,226.878,-205.559)">
            <rect x="166.788" y="191.567" width="184.97" height="11.411" style="fill-opacity:0.5;"/>
        </g>
        <g transform="matrix(1,0,0,1,-4.7103,175.045)">
            <rect x="166.788" y="191.567" width="184.97" height="11.411" style="fill-opacity:0.5;"/>
        </g>
    </g>
</svg>
