<svg width="100%" height="100%" viewBox="0 0 24 24" fill="none" xmlns="http://www.w3.org/2000/svg">
	<rect width="24" height="24" fill="none" rx="0" ry="0">
	</rect>
	<path fill-rule="evenodd" clip-rule="evenodd" d="M12 3C10.3431 3 9 4.34315 9 6V10H7.7V8H6.5V10H5.5V11.2H6.5V12.5C6.5 15.3348 8.64468 17.6687 11.4 17.9676V19.8H9.6C9.26863 19.8 9 20.0687 9 20.4C9 20.7314 9.26863 21 9.6 21H14.4C14.7314 21 15 20.7314 15 20.4C15 20.0687 14.7314 19.8 14.4 19.8H12.6V17.9676C15.3553 17.6687 17.5 15.3348 17.5 12.5V11.2H18.5V10H17.5V8H16.3V10H15V6C15 4.34315 13.6569 3 12 3ZM7.7 11.2V12.5C7.7 14.8748 9.62518 16.8 12 16.8C14.3748 16.8 16.3 14.8748 16.3 12.5V11.2H15V12C15 13.6569 13.6569 15 12 15C10.3431 15 9 13.6569 9 12V11.2H7.7Z" fill="#ffffff">
	</path>
</svg>
