<svg width="100" height="100" viewBox="0 0 24 24" fill="none" xmlns="http://www.w3.org/2000/svg">
	<rect width="24" height="24" fill="none" rx="0" ry="0">
	</rect>
	<path fill-rule="evenodd" clip-rule="evenodd" d="M9.22817 2.5H18.0282C18.0682 2.5 18.1082 2.5 18.1482 2.51C18.3082 2.51 18.4682 2.52 18.6282 2.54V17.9C18.6282 19.88 17.0182 21.5 15.0282 21.5H6.22817C6.18817 21.5 6.14817 21.5 6.10817 21.49C5.94817 21.49 5.78817 21.48 5.62817 21.46V6.1C5.62817 4.12 7.23817 2.5 9.22817 2.5ZM19.8281 7.70012V2.87012C21.4781 3.57012 22.6281 5.20012 22.6281 7.10012C22.6281 7.43012 22.3581 7.70012 22.0281 7.70012H19.8281ZM1.62817 16.9C1.62817 18.8 2.77817 20.43 4.42817 21.14V16.3H2.22817C1.89817 16.3 1.62817 16.57 1.62817 16.9ZM9.27817 8.95H14.9782C15.1982 8.95 15.3782 8.77 15.3782 8.55V8.15C15.3782 7.93 15.1982 7.75 14.9782 7.75H9.27817C9.05817 7.75 8.87817 7.93 8.87817 8.15V8.55C8.87817 8.77 9.05817 8.95 9.27817 8.95ZM9.27817 12.5999H14.9782C15.1982 12.5999 15.3782 12.4199 15.3782 12.1999V11.7999C15.3782 11.5799 15.1982 11.3999 14.9782 11.3999H9.27817C9.05817 11.3999 8.87817 11.5799 8.87817 11.7999V12.1999C8.87817 12.4199 9.05817 12.5999 9.27817 12.5999ZM14.9782 16.25H9.27817C9.05817 16.25 8.87817 16.07 8.87817 15.85V15.45C8.87817 15.23 9.05817 15.05 9.27817 15.05H14.9782C15.1982 15.05 15.3782 15.23 15.3782 15.45V15.85C15.3782 16.07 15.1982 16.25 14.9782 16.25Z" fill="#ffffff">
	</path>
</svg>
